<svg width="1200" height="720" viewBox="0 0 1200 720" fill="none" xmlns="http://www.w3.org/2000/svg">
  <rect width="1200" height="720" rx="40" fill="#F8FAFC"/>
  <rect x="24" y="24" width="1152" height="672" rx="34" fill="#FFFDF7"/>
  <rect x="58" y="60" width="1084" height="118" rx="28" fill="#FFFFFF" stroke="#E2E8F0"/>
  <rect x="90" y="94" width="190" height="12" rx="6" fill="#F59E0B"/>
  <rect x="90" y="120" width="320" height="24" rx="12" fill="#0F172A"/>
  <rect x="830" y="88" width="282" height="56" rx="20" fill="#F59E0B"/>
  <rect x="872" y="110" width="194" height="12" rx="6" fill="#111827"/>
  <rect x="58" y="204" width="1084" height="106" rx="28" fill="#FFFFFF" stroke="#E2E8F0"/>
  <rect x="90" y="234" width="200" height="46" rx="16" fill="#FFFFFF" stroke="#CBD5E1"/>
  <rect x="314" y="234" width="220" height="46" rx="16" fill="#FFFFFF" stroke="#CBD5E1"/>
  <rect x="558" y="234" width="150" height="46" rx="16" fill="#0F172A"/>
  <rect x="730" y="234" width="150" height="46" rx="16" fill="#FFFFFF" stroke="#CBD5E1"/>
  <rect x="58" y="336" width="240" height="146" rx="28" fill="#FFFFFF" stroke="#E2E8F0"/>
  <rect x="82" y="364" width="94" height="10" rx="5" fill="#94A3B8"/>
  <rect x="82" y="392" width="80" height="34" rx="17" fill="#0F172A"/>
  <rect x="82" y="438" width="132" height="10" rx="5" fill="#CBD5E1"/>
  <rect x="316" y="336" width="240" height="146" rx="28" fill="#0F172A"/>
  <rect x="340" y="364" width="112" height="10" rx="5" fill="#CBD5E1" fill-opacity="0.8"/>
  <rect x="340" y="392" width="140" height="34" rx="17" fill="#FFFFFF"/>
  <rect x="340" y="438" width="150" height="10" rx="5" fill="#CBD5E1" fill-opacity="0.8"/>
  <rect x="574" y="336" width="240" height="146" rx="28" fill="#ECFDF5" stroke="#A7F3D0"/>
  <rect x="598" y="364" width="112" height="10" rx="5" fill="#065F46"/>
  <rect x="598" y="392" width="120" height="34" rx="17" fill="#10B981"/>
  <rect x="598" y="438" width="150" height="10" rx="5" fill="#6EE7B7"/>
  <rect x="832" y="336" width="310" height="146" rx="28" fill="#FFFFFF" stroke="#E2E8F0"/>
  <rect x="858" y="364" width="132" height="12" rx="6" fill="#0F172A"/>
  <rect x="858" y="396" width="236" height="18" rx="9" fill="#E2E8F0"/>
  <rect x="858" y="396" width="114" height="18" rx="9" fill="#F59E0B"/>
  <rect x="858" y="432" width="236" height="18" rx="9" fill="#E2E8F0"/>
  <rect x="858" y="432" width="166" height="18" rx="9" fill="#10B981"/>
  <rect x="58" y="508" width="1084" height="152" rx="28" fill="#FFFFFF" stroke="#E2E8F0"/>
  <rect x="90" y="542" width="180" height="12" rx="6" fill="#0F172A"/>
  <rect x="90" y="568" width="230" height="10" rx="5" fill="#94A3B8"/>
  <rect x="90" y="606" width="1020" height="1" fill="#E2E8F0"/>
  <rect x="90" y="622" width="200" height="10" rx="5" fill="#111827"/>
  <rect x="454" y="622" width="110" height="10" rx="5" fill="#94A3B8"/>
  <rect x="736" y="618" width="126" height="18" rx="9" fill="#ECFDF5"/>
  <rect x="960" y="622" width="120" height="10" rx="5" fill="#111827"/>
</svg>
