<svg width="1200" height="720" viewBox="0 0 1200 720" fill="none" xmlns="http://www.w3.org/2000/svg">
  <rect width="1200" height="720" rx="40" fill="#F8FAFC"/>
  <rect x="26" y="26" width="1148" height="668" rx="32" fill="url(#bg)"/>
  <rect x="62" y="70" width="250" height="578" rx="28" fill="#FFFFFF" stroke="#E2E8F0"/>
  <rect x="90" y="104" width="58" height="58" rx="18" fill="url(#accent)"/>
  <rect x="160" y="114" width="120" height="12" rx="6" fill="#0F172A"/>
  <rect x="160" y="136" width="88" height="10" rx="5" fill="#94A3B8"/>
  <rect x="90" y="196" width="194" height="112" rx="24" fill="#0F172A"/>
  <rect x="108" y="220" width="88" height="10" rx="5" fill="#CBD5E1" fill-opacity="0.7"/>
  <rect x="108" y="242" width="120" height="22" rx="11" fill="#FFFFFF"/>
  <rect x="108" y="274" width="72" height="10" rx="5" fill="#CBD5E1" fill-opacity="0.7"/>
  <rect x="90" y="338" width="194" height="48" rx="18" fill="#0F172A"/>
  <rect x="108" y="356" width="92" height="12" rx="6" fill="#FFFFFF"/>
  <rect x="90" y="402" width="194" height="48" rx="18" fill="#F8FAFC" stroke="#E2E8F0"/>
  <rect x="108" y="420" width="72" height="12" rx="6" fill="#475569"/>
  <rect x="90" y="466" width="194" height="48" rx="18" fill="#F8FAFC" stroke="#E2E8F0"/>
  <rect x="108" y="484" width="88" height="12" rx="6" fill="#475569"/>
  <rect x="344" y="70" width="790" height="120" rx="28" fill="#FFFFFF" stroke="#E2E8F0"/>
  <rect x="378" y="104" width="210" height="12" rx="6" fill="#F59E0B"/>
  <rect x="378" y="130" width="340" height="26" rx="13" fill="#0F172A"/>
  <rect x="378" y="166" width="420" height="12" rx="6" fill="#94A3B8"/>
  <rect x="848" y="100" width="246" height="60" rx="22" fill="#F59E0B"/>
  <rect x="884" y="124" width="170" height="12" rx="6" fill="#111827"/>
  <rect x="344" y="216" width="790" height="150" rx="28" fill="none"/>
  <rect x="344" y="216" width="184" height="150" rx="28" fill="#FFFFFF" stroke="#E2E8F0"/>
  <rect x="368" y="246" width="74" height="10" rx="5" fill="#94A3B8"/>
  <rect x="368" y="274" width="86" height="34" rx="17" fill="#0F172A"/>
  <rect x="368" y="320" width="108" height="10" rx="5" fill="#CBD5E1"/>
  <rect x="546" y="216" width="184" height="150" rx="28" fill="#FFF7ED" stroke="#FDE68A"/>
  <rect x="570" y="246" width="88" height="10" rx="5" fill="#B45309"/>
  <rect x="570" y="274" width="70" height="34" rx="17" fill="#F59E0B"/>
  <rect x="570" y="320" width="120" height="10" rx="5" fill="#FCD34D"/>
  <rect x="748" y="216" width="184" height="150" rx="28" fill="#FFFFFF" stroke="#E2E8F0"/>
  <rect x="772" y="246" width="104" height="10" rx="5" fill="#94A3B8"/>
  <rect x="772" y="274" width="60" height="34" rx="17" fill="#0F172A"/>
  <rect x="772" y="320" width="108" height="10" rx="5" fill="#CBD5E1"/>
  <rect x="950" y="216" width="184" height="150" rx="28" fill="#0F172A"/>
  <rect x="974" y="246" width="116" height="10" rx="5" fill="#CBD5E1" fill-opacity="0.8"/>
  <rect x="974" y="274" width="122" height="34" rx="17" fill="#FFFFFF"/>
  <rect x="974" y="320" width="96" height="10" rx="5" fill="#CBD5E1" fill-opacity="0.8"/>
  <rect x="344" y="392" width="500" height="256" rx="28" fill="#FFFFFF" stroke="#E2E8F0"/>
  <rect x="374" y="426" width="170" height="12" rx="6" fill="#0F172A"/>
  <rect x="374" y="450" width="196" height="10" rx="5" fill="#94A3B8"/>
  <rect x="374" y="492" width="438" height="54" rx="20" fill="#F8FAFC" stroke="#E2E8F0"/>
  <rect x="394" y="512" width="118" height="12" rx="6" fill="#111827"/>
  <rect x="696" y="506" width="88" height="28" rx="14" fill="#0F172A"/>
  <rect x="374" y="562" width="438" height="54" rx="20" fill="#F8FAFC" stroke="#E2E8F0"/>
  <rect x="394" y="582" width="150" height="12" rx="6" fill="#111827"/>
  <rect x="684" y="576" width="100" height="28" rx="14" fill="#F59E0B"/>
  <rect x="868" y="392" width="266" height="256" rx="28" fill="#FFFFFF" stroke="#E2E8F0"/>
  <rect x="898" y="426" width="150" height="12" rx="6" fill="#0F172A"/>
  <rect x="898" y="450" width="170" height="10" rx="5" fill="#94A3B8"/>
  <rect x="898" y="492" width="208" height="20" rx="10" fill="#E2E8F0"/>
  <rect x="898" y="492" width="126" height="20" rx="10" fill="url(#accent)"/>
  <rect x="898" y="534" width="208" height="20" rx="10" fill="#E2E8F0"/>
  <rect x="898" y="534" width="168" height="20" rx="10" fill="#10B981"/>
  <rect x="898" y="576" width="208" height="20" rx="10" fill="#E2E8F0"/>
  <rect x="898" y="576" width="92" height="20" rx="10" fill="#F59E0B"/>
  <defs>
    <linearGradient id="bg" x1="26" y1="26" x2="1174" y2="694" gradientUnits="userSpaceOnUse">
      <stop stop-color="#FFFDF7"/>
      <stop offset="1" stop-color="#EEF4F6"/>
    </linearGradient>
    <linearGradient id="accent" x1="90" y1="104" x2="148" y2="162" gradientUnits="userSpaceOnUse">
      <stop stop-color="#F59E0B"/>
      <stop offset="1" stop-color="#10B981"/>
    </linearGradient>
  </defs>
</svg>
